<svg width="32" height="32" viewBox="0 0 32 32" fill="none" xmlns="http://www.w3.org/2000/svg">
<g id="icons/outline">
<path id="Exclude" fill-rule="evenodd" clip-rule="evenodd" d="M16 32C24.8366 32 32 24.8366 32 16C32 7.16344 24.8366 0 16 0C7.16344 0 0 7.16344 0 16C0 24.8366 7.16344 32 16 32ZM22.2298 11.8941C22.8481 11.8284 23.4484 11.6598 24 11.4255C23.5818 12.0254 23.0572 12.5598 22.4587 12.9911C22.4677 13.1225 22.4677 13.2539 22.4677 13.3852C22.4677 17.3882 19.3744 22 13.7212 22C11.9798 22 10.3628 21.503 9 20.642C9.24697 20.6704 9.48492 20.6793 9.7427 20.6793C11.1794 20.6793 12.5026 20.2 13.5589 19.3852C12.2087 19.3568 11.0749 18.4852 10.6855 17.2852C10.8766 17.3118 11.0659 17.3314 11.266 17.3314C11.5391 17.3306 11.811 17.296 12.0754 17.2284C10.6675 16.9479 9.6111 15.7284 9.6111 14.2568V14.2195C10.0372 14.4538 10.5133 14.5858 11.001 14.6047C10.1735 14.0598 9.63093 13.1331 9.63093 12.0823C9.62916 11.5451 9.77357 11.0174 10.0492 10.5539C11.5616 12.3911 13.8366 13.5911 16.3873 13.7225C16.3405 13.497 16.3116 13.2627 16.3116 13.0284C16.3116 11.3598 17.6816 10 19.3852 10C19.8062 9.99909 20.2229 10.0836 20.6094 10.2482C20.9958 10.4128 21.3437 10.654 21.6313 10.9568C22.3195 10.8258 22.9794 10.5783 23.5818 10.2255C23.3525 10.9252 22.8717 11.5185 22.2298 11.8941Z" fill="white"/>
</g>
</svg>
