<svg width="32" height="32" viewBox="0 0 32 32" fill="none" xmlns="http://www.w3.org/2000/svg">
<g id="icons/outline">
<path id="Exclude" fill-rule="evenodd" clip-rule="evenodd" d="M16 32C24.8366 32 32 24.8366 32 16C32 7.16344 24.8366 0 16 0C7.16344 0 0 7.16344 0 16C0 24.8366 7.16344 32 16 32ZM16 8C13.8269 8 13.5549 8.00873 12.7018 8.048H12.7011C11.8502 8.08727 11.2684 8.22255 10.7593 8.41964C10.2258 8.62069 9.74257 8.93564 9.34327 9.34255C8.93609 9.74205 8.62089 10.2255 8.41964 10.7593C8.22255 11.2684 8.08654 11.8502 8.048 12.7025C8.00945 13.5549 8 13.8269 8 16C8 18.1724 8.00873 18.4444 8.048 19.2989C8.08727 20.1498 8.22255 20.7316 8.41964 21.2407C8.62059 21.7745 8.93555 22.2579 9.34255 22.6575C9.74241 23.0642 10.2261 23.3789 10.76 23.5796C11.2691 23.7775 11.8509 23.9135 12.7018 23.952C13.5549 23.9905 13.8269 24 16 24C18.1731 24 18.4451 23.9913 19.2989 23.952C20.1498 23.9127 20.7316 23.7775 21.2407 23.5796C21.7738 23.3789 22.2575 23.0647 22.6575 22.6575C23.0642 22.2576 23.3789 21.7739 23.5796 21.24C23.7775 20.7309 23.9135 20.1491 23.952 19.2982C23.9905 18.4451 24 18.1731 24 16C24 13.8276 23.9913 13.5556 23.952 12.7011C23.9127 11.8502 23.7775 11.2684 23.5796 10.7593C23.3789 10.2255 23.0647 9.74255 22.6575 9.34327C22.2575 8.936 21.7738 8.62109 21.2407 8.41964C20.7316 8.22255 20.1498 8.08654 19.2975 8.048C18.4451 8.00945 18.1731 8 16 8ZM16 9.44145C18.136 9.44145 18.3891 9.44945 19.2327 9.488C20.0131 9.52364 20.4364 9.65382 20.7185 9.76364C21.066 9.89179 21.3803 10.0961 21.6385 10.3615C21.9185 10.6415 22.0909 10.9084 22.2364 11.2815C22.3462 11.5636 22.4764 11.9869 22.512 12.7673C22.5505 13.6109 22.5585 13.864 22.5585 16C22.5585 18.136 22.5505 18.3891 22.512 19.2327C22.4764 20.0131 22.3462 20.4364 22.2364 20.7185C22.1084 21.0655 21.904 21.3804 21.6385 21.6385C21.3585 21.9185 21.0916 22.0909 20.7185 22.2364C20.4364 22.3462 20.0131 22.4764 19.2327 22.512C18.3891 22.5505 18.1367 22.5585 16 22.5585C13.8633 22.5585 13.6109 22.5505 12.7673 22.512C11.9869 22.4764 11.5636 22.3462 11.2815 22.2364C10.9345 22.1084 10.6196 21.904 10.3615 21.6385C10.096 21.3804 9.89164 21.0655 9.76364 20.7185C9.65382 20.4364 9.52364 20.0131 9.488 19.2327C9.44945 18.3891 9.44145 18.136 9.44145 16C9.44145 13.864 9.44945 13.6109 9.488 12.7673C9.52364 11.9869 9.65382 11.5636 9.76364 11.2815C9.89177 10.934 10.096 10.6197 10.3615 10.3615C10.6415 10.0815 10.9084 9.90909 11.2815 9.76364C11.5636 9.65382 11.9869 9.52364 12.7673 9.488C13.6109 9.44945 13.864 9.44145 16 9.44145ZM16.7759 18.5569C16.1843 18.7358 15.5488 18.7037 14.9782 18.4662C14.6137 18.315 14.2872 18.085 14.0223 17.7925C13.7574 17.5001 13.5607 17.1525 13.4462 16.7749C13.3317 16.3973 13.3024 15.999 13.3604 15.6087C13.4183 15.2184 13.5621 14.8458 13.7813 14.5177C14.0005 14.1896 14.2898 13.9142 14.6282 13.7114C14.9667 13.5085 15.3459 13.3832 15.7385 13.3444C16.1312 13.3057 16.5276 13.3545 16.8992 13.4874C17.2707 13.6202 17.6082 13.8338 17.8873 14.1127C18.3251 14.5491 18.5978 15.1239 18.6589 15.739C18.72 16.3541 18.5657 16.9713 18.2223 17.4853C17.8788 17.9992 17.3676 18.378 16.7759 18.5569ZM14.4264 12.201C13.9275 12.4076 13.4742 12.7105 13.0924 13.0924C12.3212 13.8635 11.888 14.9094 11.888 16C11.888 17.0906 12.3212 18.1365 13.0924 18.9076C13.8635 19.6788 14.9094 20.112 16 20.112C17.0906 20.112 18.1365 19.6788 18.9076 18.9076C19.2895 18.5258 19.5924 18.0725 19.799 17.5736C20.0057 17.0747 20.112 16.54 20.112 16C20.112 15.46 20.0057 14.9253 19.799 14.4264C19.5924 13.9275 19.2895 13.4742 18.9076 13.0924C18.5258 12.7105 18.0725 12.4076 17.5736 12.201C17.0747 11.9943 16.54 11.888 16 11.888C15.46 11.888 14.9253 11.9943 14.4264 12.201ZM21.2468 12.1847C21.1944 12.3038 21.1186 12.4111 21.024 12.5004C20.84 12.674 20.5955 12.769 20.3426 12.7653C20.0896 12.7616 19.8481 12.6595 19.6692 12.4806C19.4903 12.3017 19.3882 12.0602 19.3845 11.8072C19.3808 11.5543 19.4759 11.3098 19.6495 11.1258C19.7387 11.0312 19.8461 10.9554 19.9651 10.9031C20.0842 10.8507 20.2125 10.8227 20.3426 10.8208C20.4727 10.8189 20.6018 10.8431 20.7223 10.892C20.8429 10.9409 20.9524 11.0135 21.0443 11.1055C21.1363 11.1975 21.2089 11.307 21.2578 11.4275C21.3067 11.548 21.3309 11.6772 21.329 11.8072C21.3271 11.9373 21.2992 12.0656 21.2468 12.1847Z" fill="white"/>
</g>
</svg>
